<?xml version="1.0" standalone="no"?>
<!DOCTYPE svg PUBLIC "-//W3C//DTD SVG 20010904//EN"
 "http://www.w3.org/TR/2001/REC-SVG-20010904/DTD/svg10.dtd">
<svg version="1.0" xmlns="http://www.w3.org/2000/svg"
 width="527.000000pt" height="481.000000pt" viewBox="0 0 527.000000 481.000000"
 preserveAspectRatio="xMidYMid meet">

<g transform="translate(0.000000,481.000000) scale(0.100000,-0.100000)"
fill="#000000" stroke="none">
<path d="M1300 3825 l0 -605 25 0 25 0 0 580 0 580 1165 0 1165 0 0 -1165 0
-1165 -581 0 -580 0 3 -28 3 -27 605 0 605 0 3 1218 2 1217 -1220 0 -1220 0 0
-605z"/>
<path d="M2485 3889 c-346 -50 -562 -328 -542 -699 9 -174 53 -293 150 -410
132 -159 305 -223 564 -208 145 8 213 25 323 80 l85 43 3 253 2 252 -195 0
-195 0 0 -55 c0 -70 9 -75 139 -75 l101 0 0 -146 0 -145 -54 -25 c-129 -59
-329 -70 -448 -25 -135 52 -228 152 -274 294 -22 68 -26 101 -26 197 -1 187
42 311 141 411 93 93 196 129 367 129 94 0 226 -21 274 -43 23 -11 26 -20 32
-101 4 -49 13 -95 20 -103 7 -9 27 -13 57 -11 l46 3 3 146 c2 109 -1 149 -10
157 -17 13 -132 46 -229 66 -93 19 -254 26 -334 15z"/>
<path d="M1224 1581 c-10 -10 -3 -31 11 -31 27 0 35 -39 35 -178 0 -128 2
-142 23 -173 63 -94 192 -114 277 -43 50 43 55 59 60 224 5 149 6 155 28 165
24 11 29 30 10 37 -23 8 -130 0 -140 -10 -7 -7 0 -15 19 -24 l28 -13 3 -134
c2 -118 0 -138 -18 -176 -23 -47 -53 -65 -110 -65 -57 0 -87 18 -110 65 -18
38 -20 58 -18 176 3 128 4 134 26 144 24 10 30 34 10 36 -44 3 -130 3 -134 0z"/>
<path d="M2320 1582 c-16 -6 -13 -92 4 -92 8 0 17 11 20 25 6 25 10 26 64 23
l57 -3 3 -182 2 -182 -25 -17 c-14 -9 -25 -23 -25 -31 0 -11 15 -13 72 -11 76
3 100 20 54 38 l-26 10 2 187 3 188 56 3 c53 3 57 1 63 -23 4 -14 13 -25 22
-25 12 0 14 10 12 46 l-3 46 -173 2 c-94 0 -177 0 -182 -2z"/>
<path d="M3378 1582 c-34 -4 -36 -24 -5 -37 17 -8 41 -58 107 -220 85 -210
102 -237 132 -207 6 6 46 100 89 209 58 144 87 204 106 220 15 12 25 24 22 27
-3 3 -36 7 -74 8 -49 2 -70 -1 -73 -10 -2 -7 5 -16 17 -19 12 -3 21 -13 21
-21 0 -21 -121 -332 -129 -332 -8 0 -131 311 -131 332 0 8 9 18 20 21 19 5 28
26 13 28 -30 3 -93 3 -115 1z"/>
<path d="M764 1561 c-188 -86 -154 -396 48 -441 63 -14 163 -2 204 25 22 14
24 22 24 100 0 95 -2 98 -85 93 -33 -3 -41 -7 -43 -25 -3 -21 1 -23 37 -23
l41 0 0 -55 c0 -50 -2 -56 -26 -65 -14 -6 -54 -10 -88 -10 -69 0 -111 20 -150
73 -32 44 -35 158 -4 217 30 59 89 90 168 89 87 -2 104 -9 110 -49 3 -23 11
-36 23 -38 16 -3 18 3 15 49 -3 53 -3 54 -43 65 -63 19 -183 17 -231 -5z"/>
<path d="M1922 1560 c-46 -28 -67 -82 -53 -131 15 -48 46 -72 127 -99 77 -26
100 -52 90 -105 -9 -47 -38 -65 -106 -65 -65 0 -88 13 -92 55 -2 19 -9 30 -18
30 -12 0 -15 -13 -15 -55 l0 -55 50 -13 c137 -36 242 28 232 141 -5 62 -25 82
-113 113 -85 31 -104 48 -104 90 0 42 38 74 89 74 63 0 80 -9 83 -43 2 -21 9
-33 21 -35 14 -3 17 4 17 47 0 28 -5 53 -12 57 -6 4 -46 9 -87 11 -64 4 -81 1
-109 -17z"/>
<path d="M2935 1378 c-48 -123 -89 -212 -103 -225 -33 -30 -20 -43 43 -43 59
0 79 15 49 37 -17 12 -17 16 -3 56 l16 42 109 0 109 0 15 -42 c13 -40 13 -44
-4 -56 -30 -22 -10 -37 49 -37 60 0 78 15 47 39 -13 10 -52 95 -102 224 l-82
207 -32 0 -31 0 -80 -202z m158 30 c21 -54 37 -100 37 -103 0 -3 -39 -5 -86
-5 -78 0 -85 2 -79 18 3 9 23 59 42 110 20 51 39 89 43 85 4 -4 23 -52 43
-105z"/>
<path d="M4072 1567 c-80 -30 -131 -114 -132 -217 0 -125 61 -205 176 -231
148 -33 274 73 274 230 -1 105 -46 180 -132 215 -43 19 -139 20 -186 3z m185
-53 c55 -41 68 -70 71 -157 2 -71 0 -87 -20 -121 -30 -52 -78 -76 -149 -76
-68 0 -113 26 -142 84 -53 101 -22 229 66 279 43 23 137 19 174 -9z"/>
</g>
</svg>
